Exo-Black.ufo
<glyph name="asterisk" format="1">
  <advance width="418"/>
  <unicode hex="002A"/>
  <note>
    GF Latin Plus glyph
  </note>
  <outline>
    <contour>
      <point x="28" y="566" type="line"/>
      <point x="172" y="561" type="line"/>
      <point x="167" y="655" type="line"/>
      <point x="28" y="636" type="line"/>
    </contour>
    <contour>
      <point x="157" y="722" type="line"/>
      <point x="197" y="584" type="line"/>
      <point x="285" y="618" type="line"/>
      <point x="224" y="744" type="line"/>
    </contour>
    <contour>
      <point x="230" y="571" type="line"/>
      <point x="289" y="498" type="line"/>
      <point x="390" y="595" type="line"/>
      <point x="349" y="652" type="line"/>
    </contour>
    <contour>
      <point x="176" y="459" type="line"/>
      <point x="299" y="393" type="line"/>
      <point x="341" y="449" type="line"/>
      <point x="227" y="538" type="line"/>
    </contour>
    <contour>
      <point x="76" y="418" type="line"/>
      <point x="143" y="397" type="line"/>
      <point x="192" y="532" type="line"/>
      <point x="101" y="556" type="line"/>
    </contour>
  </outline>
</glyph>
<glyph name="less" format="1">
  <advance width="609"/>
  <unicode hex="003C"/>
  <note>
    GF Latin Plus glyph
  </note>
  <outline>
    <contour>
      <point x="96" y="266" type="line"/>
      <point x="511" y="130" type="line"/>
      <point x="511" y="300" type="line"/>
      <point x="286" y="353" type="line"/>
      <point x="511" y="396" type="line"/>
      <point x="511" y="566" type="line"/>
      <point x="96" y="436" type="line"/>
    </contour>
  </outline>
</glyph>
<glyph name="bracketright" format="1">
  <advance width="344"/>
  <unicode hex="005D"/>
  <note>
    GF Latin Plus glyph
  </note>
  <outline>
    <contour>
      <point x="11" y="-56" type="line"/>
      <point x="11" y="-210" type="line"/>
      <point x="101" y="-210" type="line" smooth="yes"/>
      <point x="270" y="-210"/>
      <point x="297" y="-86"/>
      <point x="297" y="12" type="curve" smooth="yes"/>
      <point x="297" y="640" type="line" smooth="yes"/>
      <point x="297" y="772"/>
      <point x="240" y="842"/>
      <point x="101" y="842" type="curve" smooth="yes"/>
      <point x="11" y="842" type="line"/>
      <point x="11" y="688" type="line"/>
      <point x="41" y="688" type="line" smooth="yes"/>
      <point x="79" y="688"/>
      <point x="103" y="670"/>
      <point x="103" y="610" type="curve" smooth="yes"/>
      <point x="103" y="22" type="line" smooth="yes"/>
      <point x="103" y="-38"/>
      <point x="79" y="-56"/>
      <point x="41" y="-56" type="curve" smooth="yes"/>
    </contour>
  </outline>
</glyph>
<glyph name="d" format="1">
  <advance width="588.0"/>
  <unicode hex="0064"/>
  <note>
    GF Latin Plus glyph
  </note>
  <outline>
    <contour>
      <point x="224" y="273" type="curve" smooth="yes"/>
      <point x="224" y="386"/>
      <point x="243" y="404"/>
      <point x="298" y="404" type="curve" smooth="yes"/>
      <point x="316.5625" y="404.0"/>
      <point x="340.437707888135" y="394.1152566842246"/>
      <point x="352" y="387" type="curve"/>
      <point x="352" y="169" type="line"/>
      <point x="340.99309010440203" y="159.8275750870017"/>
      <point x="319.5072463768116" y="149.0"/>
      <point x="293" y="149" type="curve" smooth="yes"/>
      <point x="242.0" y="149.0"/>
      <point x="224.0" y="162.88059701492537"/>
    </contour>
    <contour>
      <point x="30" y="263" type="curve" smooth="yes"/>
      <point x="30.0" y="62.0"/>
      <point x="100" y="-6"/>
      <point x="222" y="-6" type="curve" smooth="yes"/>
      <point x="271" y="-6"/>
      <point x="313.59209641267006" y="15.393084361086316"/>
      <point x="352" y="49" type="curve"/>
      <point x="382" y="0" type="line"/>
      <point x="546" y="0" type="line"/>
      <point x="546" y="763" type="line"/>
      <point x="352" y="763" type="line"/>
      <point x="352" y="527" type="line"/>
      <point x="318.4381158957923" y="539.1195692598528"/>
      <point x="274" y="548"/>
      <point x="232" y="548" type="curve" smooth="yes"/>
      <point x="74" y="548"/>
      <point x="30.0" y="462.0"/>
    </contour>
    <contour>
      <point x="280" y="-150" type="move" name="bottom"/>
    </contour>
    <contour>
      <point x="567" y="650" type="move" name="altcaron"/>
    </contour>
    <contour>
      <point x="449" y="850" type="move" name="top"/>
    </contour>
  </outline>
</glyph>
<glyph name="AE" format="1">
  <advance width="992.0"/>
  <unicode hex="00C6"/>
  <note>
    GF Latin Plus glyph
  </note>
  <outline>
    <contour>
      <point x="346" y="282" type="line"/>
      <point x="463" y="527" type="line"/>
      <point x="463" y="282" type="line"/>
    </contour>
    <contour>
      <point x="5" y="0" type="line"/>
      <point x="194" y="0" type="line"/>
      <point x="261" y="118" type="line"/>
      <point x="463" y="118" type="line"/>
      <point x="464" y="111" type="line" smooth="yes"/>
      <point x="477" y="19"/>
      <point x="539" y="-6"/>
      <point x="659" y="-6" type="curve" smooth="yes"/>
      <point x="779" y="-6"/>
      <point x="872" y="3"/>
      <point x="956" y="14" type="curve"/>
      <point x="956" y="176" type="line"/>
      <point x="699" y="176" type="line" smooth="yes"/>
      <point x="670" y="176"/>
      <point x="637" y="175"/>
      <point x="637" y="228" type="curve" smooth="yes"/>
      <point x="637" y="284" type="line"/>
      <point x="906" y="294" type="line"/>
      <point x="906" y="448" type="line"/>
      <point x="637" y="458" type="line"/>
      <point x="637" y="516" type="line" smooth="yes"/>
      <point x="637" y="546"/>
      <point x="650" y="564"/>
      <point x="689" y="564" type="curve" smooth="yes"/>
      <point x="956" y="564" type="line"/>
      <point x="956" y="727" type="line"/>
      <point x="891" y="734"/>
      <point x="774" y="743"/>
      <point x="649" y="743" type="curve" smooth="yes"/>
      <point x="465.0" y="743.0"/>
      <point x="360" y="692"/>
      <point x="269" y="514" type="curve" smooth="yes"/>
    </contour>
    <contour>
      <point x="534" y="810" type="move" name="top"/>
    </contour>
  </outline>
</glyph>
<glyph name="Hbar" format="1">
  <advance width="718.0"/>
  <unicode hex="0126"/>
  <note>
    GF Latin Plus glyph
  </note>
  <outline>
    <contour>
      <point x="10" y="513" type="line"/>
      <point x="708" y="513" type="line"/>
      <point x="708" y="607" type="line"/>
      <point x="10" y="607" type="line"/>
    </contour>
    <component base="H"/>
  </outline>
</glyph>
<glyph name="kgreenlandic" format="1">
  <advance width="586.0"/>
  <unicode hex="0138"/>
  <note>
    GF Latin Plus glyph
  </note>
  <outline>
    <contour>
      <point x="44" y="0" type="line"/>
      <point x="238" y="0" type="line"/>
      <point x="238" y="182" type="line"/>
      <point x="292" y="182" type="line"/>
      <point x="398" y="0" type="line"/>
      <point x="593" y="0" type="line"/>
      <point x="436" y="269" type="line"/>
      <point x="575" y="539" type="line"/>
      <point x="374" y="539" type="line"/>
      <point x="286" y="356" type="line"/>
      <point x="238" y="356" type="line"/>
      <point x="238" y="539" type="line"/>
      <point x="44" y="539" type="line"/>
    </contour>
  </outline>
</glyph>
<glyph name="ring" format="1">
  <advance width="319.0"/>
  <unicode hex="02DA"/>
  <note>
    GF Latin Plus glyph
  </note>
  <outline>
    <contour>
      <point x="116" y="697" type="curve" smooth="yes"/>
      <point x="116.0" y="732.6363636363636"/>
      <point x="130.0" y="746.0"/>
      <point x="160" y="746" type="curve" smooth="yes"/>
      <point x="190.0" y="746.0"/>
      <point x="203.0" y="732.6363636363636"/>
      <point x="203" y="697" type="curve" smooth="yes"/>
      <point x="203.0" y="661.2790697674419"/>
      <point x="190.0" y="649.0"/>
      <point x="160" y="649" type="curve" smooth="yes"/>
      <point x="130.0" y="649.0"/>
      <point x="116.0" y="661.2790697674419"/>
    </contour>
    <contour>
      <point x="28" y="697" type="curve" smooth="yes"/>
      <point x="28.0" y="609.25"/>
      <point x="75.0" y="580.0"/>
      <point x="160" y="580" type="curve" smooth="yes"/>
      <point x="246.0" y="580.0"/>
      <point x="291.0" y="609.25"/>
      <point x="291" y="697" type="curve" smooth="yes"/>
      <point x="291.0" y="784.7168141592921"/>
      <point x="246.0" y="815.0"/>
      <point x="160" y="815" type="curve" smooth="yes"/>
      <point x="75.0" y="815.0"/>
      <point x="28.0" y="784.7168141592921"/>
    </contour>
  </outline>
</glyph>
<glyph name="lozenge" format="1">
  <advance width="504"/>
  <unicode hex="25CA"/>
  <outline>
    <contour>
      <point x="190" y="373" type="line"/>
      <point x="255" y="489" type="line"/>
      <point x="315" y="373" type="line"/>
      <point x="255" y="248" type="line"/>
    </contour>
    <contour>
      <point x="11" y="373" type="line"/>
      <point x="218" y="0" type="line"/>
      <point x="292" y="0" type="line"/>
      <point x="493" y="373" type="line"/>
      <point x="292" y="732" type="line"/>
      <point x="218" y="732" type="line"/>
    </contour>
  </outline>
</glyph>
<glyph name="Thorn.smcp" format="1">
  <advance width="515"/>
  <outline>
    <contour>
      <point x="50" y="0" type="line"/>
      <point x="234" y="0" type="line"/>
      <point x="234" y="92" type="line"/>
      <point x="251" y="88"/>
      <point x="277" y="75"/>
      <point x="310" y="75" type="curve" smooth="yes"/>
      <point x="389" y="75"/>
      <point x="487" y="98"/>
      <point x="487" y="282" type="curve" smooth="yes"/>
      <point x="487" y="464"/>
      <point x="383" y="483"/>
      <point x="298" y="483" type="curve" smooth="yes"/>
      <point x="234" y="483" type="line"/>
      <point x="234" y="560" type="line"/>
      <point x="50" y="560" type="line"/>
    </contour>
    <contour>
      <point x="234" y="231" type="line"/>
      <point x="234" y="328" type="line"/>
      <point x="279" y="328" type="line" smooth="yes"/>
      <point x="301" y="328"/>
      <point x="303" y="306"/>
      <point x="303" y="280" type="curve" smooth="yes"/>
      <point x="303" y="252"/>
      <point x="304" y="231"/>
      <point x="280" y="231" type="curve" smooth="yes"/>
    </contour>
  </outline>
</glyph>
<glyph name="d.salt" format="1">
  <advance width="578.0"/>
  <outline>
    <contour>
      <point x="224" y="273" type="curve" smooth="yes"/>
      <point x="224" y="386"/>
      <point x="243" y="404"/>
      <point x="296" y="404" type="curve" smooth="yes"/>
      <point x="313" y="404"/>
      <point x="332" y="397"/>
      <point x="342" y="387" type="curve"/>
      <point x="342" y="169" type="line"/>
      <point x="332" y="161"/>
      <point x="315" y="149"/>
      <point x="288" y="149" type="curve" smooth="yes"/>
      <point x="242" y="149"/>
      <point x="224" y="163"/>
    </contour>
    <contour>
      <point x="30" y="263" type="curve" smooth="yes"/>
      <point x="30" y="62"/>
      <point x="100" y="-6"/>
      <point x="276" y="-6" type="curve" smooth="yes"/>
      <point x="377" y="-6"/>
      <point x="484" y="31"/>
      <point x="536" y="69" type="curve"/>
      <point x="536" y="763" type="line"/>
      <point x="342" y="763" type="line"/>
      <point x="342" y="527" type="line"/>
      <point x="311" y="538"/>
      <point x="271" y="548"/>
      <point x="232" y="548" type="curve" smooth="yes"/>
      <point x="74" y="548"/>
      <point x="30" y="462"/>
    </contour>
    <contour>
      <point x="270" y="-150" type="move" name="bottom"/>
    </contour>
    <contour>
      <point x="557" y="650" type="move" name="altcaron"/>
    </contour>
  </outline>
</glyph>
<glyph name="dblgravecomb.case" format="1">
  <advance width="0"/>
  <note>
    GF Latin Plus glyph
  </note>
  <outline>
    <contour>
      <point x="-569" y="934" type="line"/>
      <point x="-461" y="791" type="line"/>
      <point x="-347" y="791" type="line"/>
      <point x="-415" y="934" type="line"/>
    </contour>
    <contour>
      <point x="-369" y="934" type="line"/>
      <point x="-261" y="791" type="line"/>
      <point x="-147" y="791" type="line"/>
      <point x="-215" y="934" type="line"/>
    </contour>
    <contour>
      <point x="-320" y="810" type="move" name="_top"/>
    </contour>
  </outline>
</glyph>
<glyph name="f.salt" format="1">
  <advance width="374.0"/>
  <outline>
    <contour>
      <point x="42" y="0" type="line"/>
      <point x="236" y="0" type="line"/>
      <point x="236" y="385" type="line"/>
      <point x="344" y="385" type="line"/>
      <point x="344" y="539" type="line"/>
      <point x="236" y="539" type="line"/>
      <point x="236" y="569" type="line" smooth="yes"/>
      <point x="236" y="602"/>
      <point x="249" y="612"/>
      <point x="277" y="612" type="curve" smooth="yes"/>
      <point x="354" y="612" type="line"/>
      <point x="354" y="751" type="line"/>
      <point x="330" y="759"/>
      <point x="283" y="769"/>
      <point x="237" y="769" type="curve" smooth="yes"/>
      <point x="103" y="769"/>
      <point x="42" y="710"/>
      <point x="42" y="558" type="curve" smooth="yes"/>
    </contour>
    <contour>
      <point x="230" y="880" type="move" name="top"/>
    </contour>
  </outline>
</glyph>
<glyph name="f_t" format="1">
  <advance width="812"/>
  <outline>
    <contour>
      <point x="15" y="385" type="line"/>
      <point x="87" y="385" type="line"/>
      <point x="87" y="0" type="line"/>
      <point x="281" y="0" type="line"/>
      <point x="281" y="385" type="line"/>
      <point x="589" y="385" type="line"/>
      <point x="589" y="539" type="line"/>
      <point x="281" y="539" type="line"/>
      <point x="281" y="569" type="line" smooth="yes"/>
      <point x="281" y="602"/>
      <point x="294" y="612"/>
      <point x="322" y="612" type="curve" smooth="yes"/>
      <point x="399" y="612" type="line"/>
      <point x="399" y="751" type="line"/>
      <point x="375" y="759"/>
      <point x="328" y="769"/>
      <point x="282" y="769" type="curve" smooth="yes"/>
      <point x="148" y="769"/>
      <point x="87" y="710"/>
      <point x="87" y="558" type="curve" smooth="yes"/>
      <point x="87" y="539" type="line"/>
      <point x="15" y="509" type="line"/>
    </contour>
    <component base="t" xOffset="409"/>
  </outline>
</glyph>
<glyph name="idotless" format="1">
  <advance width="282.0"/>
  <note>
    GF Latin Plus glyph
  </note>
  <outline>
    <contour>
      <point x="44" y="0" type="line"/>
      <point x="238" y="0" type="line"/>
      <point x="238" y="539" type="line"/>
      <point x="44" y="539" type="line"/>
    </contour>
    <contour>
      <point x="141" y="650" type="move" name="top"/>
    </contour>
    <contour>
      <point x="141" y="-150" type="move" name="bottom"/>
    </contour>
    <contour>
      <point x="228" y="0" type="move" name="ogonek"/>
    </contour>
  </outline>
</glyph>
<glyph name="lira.smcp" format="1">
  <advance width="509"/>
  <outline>
    <contour>
      <point x="53" y="0" type="line"/>
      <point x="472" y="0" type="line"/>
      <point x="472" y="156" type="line"/>
      <point x="295" y="156" type="line"/>
      <point x="295" y="181" type="line"/>
      <point x="408" y="183" type="line"/>
      <point x="408" y="259" type="line"/>
      <point x="295" y="265" type="line"/>
      <point x="295" y="280" type="line"/>
      <point x="409" y="283" type="line"/>
      <point x="409" y="358" type="line"/>
      <point x="295" y="364" type="line"/>
      <point x="295" y="374" type="line" smooth="yes"/>
      <point x="295" y="400"/>
      <point x="304" y="411"/>
      <point x="339" y="411" type="curve" smooth="yes"/>
      <point x="476" y="411" type="line"/>
      <point x="476" y="552" type="line"/>
      <point x="445" y="558"/>
      <point x="395" y="565"/>
      <point x="331" y="565" type="curve" smooth="yes"/>
      <point x="169" y="565"/>
      <point x="111" y="503"/>
      <point x="111" y="372" type="curve" smooth="yes"/>
      <point x="111" y="364" type="line"/>
      <point x="53" y="358" type="line"/>
      <point x="53" y="283" type="line"/>
      <point x="111" y="280" type="line"/>
      <point x="111" y="273" type="line"/>
      <point x="55" y="267" type="line"/>
      <point x="55" y="192" type="line"/>
      <point x="111" y="189" type="line"/>
      <point x="111" y="156" type="line"/>
      <point x="53" y="134" type="line"/>
    </contour>
  </outline>
</glyph>
<glyph name="naira.smcp" format="1">
  <advance width="509"/>
  <outline>
    <contour>
      <point x="67" y="0" type="line"/>
      <point x="212" y="0" type="line"/>
      <point x="212" y="229" type="line"/>
      <point x="326" y="0" type="line"/>
      <point x="442" y="0" type="line"/>
      <point x="442" y="558" type="line"/>
      <point x="297" y="558" type="line"/>
      <point x="297" y="330" type="line"/>
      <point x="183" y="558" type="line"/>
      <point x="67" y="558" type="line"/>
    </contour>
    <contour>
      <point x="216" y="373" type="line"/>
      <point x="473" y="373" type="line"/>
      <point x="473" y="455" type="line"/>
      <point x="170" y="455" type="line"/>
    </contour>
    <contour>
      <point x="36" y="373" type="line"/>
      <point x="135" y="373" type="line"/>
      <point x="135" y="455" type="line"/>
      <point x="36" y="455" type="line"/>
    </contour>
    <contour>
      <point x="404" y="103" type="line"/>
      <point x="473" y="103" type="line"/>
      <point x="473" y="185" type="line"/>
      <point x="404" y="185" type="line"/>
    </contour>
    <contour>
      <point x="36" y="103" type="line"/>
      <point x="367" y="103" type="line"/>
      <point x="312" y="185" type="line"/>
      <point x="36" y="185" type="line"/>
    </contour>
  </outline>
</glyph>
<glyph name="one.oldstyle" format="1">
  <advance width="481.0"/>
  <outline>
    <contour>
      <point x="50" y="354" type="line"/>
      <point x="197" y="354" type="line"/>
      <point x="197" y="0" type="line"/>
      <point x="391" y="0" type="line"/>
      <point x="391" y="539" type="line"/>
      <point x="299" y="539" type="line"/>
      <point x="50" y="508" type="line"/>
    </contour>
  </outline>
</glyph>
<glyph name="p.salt" format="1">
  <advance width="580.0"/>
  <outline>
    <contour>
      <point x="238" y="166" type="curve"/>
      <point x="238" y="383" type="line"/>
      <point x="249" y="387"/>
      <point x="271.17910447761193" y="393.0"/>
      <point x="295" y="393" type="curve" smooth="yes"/>
      <point x="334" y="393"/>
      <point x="356" y="367"/>
      <point x="356" y="258" type="curve" smooth="yes"/>
      <point x="356" y="166"/>
      <point x="322" y="151"/>
      <point x="291" y="151" type="curve" smooth="yes"/>
      <point x="273" y="151"/>
      <point x="249.70484034148484" y="157.89664899435664"/>
    </contour>
    <contour>
      <point x="44" y="-237" type="line"/>
      <point x="238" y="-237" type="line"/>
      <point x="238" y="17" type="line"/>
      <point x="272.7509017437938" y="0.09415590842464283"/>
      <point x="318.40909090909093" y="-8.0"/>
      <point x="360" y="-8" type="curve" smooth="yes"/>
      <point x="514" y="-8"/>
      <point x="550" y="100"/>
      <point x="550" y="268" type="curve" smooth="yes"/>
      <point x="550.0" y="458.0"/>
      <point x="501.04819277108436" y="548.0"/>
      <point x="311" y="548" type="curve" smooth="yes"/>
      <point x="210.22568093385215" y="548.0"/>
      <point x="126.04149015690999" y="527.022263011025"/>
      <point x="44" y="483" type="curve"/>
    </contour>
    <contour>
      <point x="290" y="650" type="move" name="top"/>
    </contour>
  </outline>
</glyph>
<glyph name="r.superior" format="1">
  <advance width="322"/>
  <outline>
    <contour>
      <point x="25.0" y="280" type="line"/>
      <point x="195.0" y="280" type="line"/>
      <point x="195" y="485" type="line"/>
      <point x="204" y="502"/>
      <point x="227" y="508"/>
      <point x="258" y="508" type="curve" smooth="yes"/>
      <point x="270" y="508"/>
      <point x="290" y="506"/>
      <point x="308" y="505" type="curve"/>
      <point x="308" y="678" type="line"/>
      <point x="298" y="681"/>
      <point x="287" y="682"/>
      <point x="281" y="682" type="curve" smooth="yes"/>
      <point x="241.0" y="682.0"/>
      <point x="215.96139477296808" y="651.3940224208037"/>
      <point x="195.0" y="621" type="curve"/>
      <point x="158.0" y="672" type="line"/>
      <point x="25.0" y="672" type="line"/>
    </contour>
    <contour>
      <point x="175.0" y="751" type="move" name="top"/>
    </contour>
    <contour>
      <point x="110.0" y="171" type="move" name="bottom"/>
    </contour>
  </outline>
</glyph>
<glyph name="ruble.smcp" format="1">
  <advance width="509"/>
  <outline>
    <contour>
      <point x="168" y="61" type="line"/>
      <point x="403" y="61" type="line"/>
      <point x="403" y="143" type="line"/>
      <point x="178" y="143" type="line"/>
    </contour>
    <contour>
      <point x="18" y="61" type="line"/>
      <point x="158" y="61" type="line"/>
      <point x="158" y="143" type="line"/>
      <point x="18" y="143" type="line"/>
    </contour>
    <contour>
      <point x="241" y="331" type="line"/>
      <point x="241" y="404" type="line"/>
      <point x="266" y="404" type="line" smooth="yes"/>
      <point x="279" y="404"/>
      <point x="285" y="389"/>
      <point x="285" y="369" type="curve" smooth="yes"/>
      <point x="285" y="344"/>
      <point x="282" y="331"/>
      <point x="266" y="331" type="curve" smooth="yes"/>
    </contour>
    <contour>
      <point x="67" y="0" type="line"/>
      <point x="241" y="0" type="line"/>
      <point x="241" y="193" type="line"/>
      <point x="260" y="190"/>
      <point x="266" y="181"/>
      <point x="296" y="181" type="curve" smooth="yes"/>
      <point x="359" y="181"/>
      <point x="459" y="194"/>
      <point x="459" y="370" type="curve" smooth="yes"/>
      <point x="459" y="545"/>
      <point x="358" y="560"/>
      <point x="282" y="560" type="curve" smooth="yes"/>
      <point x="67" y="560" type="line"/>
    </contour>
    <contour>
      <point x="18" y="248" type="line"/>
      <point x="159" y="248" type="line"/>
      <point x="159" y="331" type="line"/>
      <point x="18" y="331" type="line"/>
    </contour>
  </outline>
</glyph>
<glyph name="three.oldstyle" format="1">
  <advance width="569.0"/>
  <outline>
    <contour>
      <point x="44" y="361" type="line"/>
      <point x="218" y="361" type="line" smooth="yes"/>
      <point x="290" y="361"/>
      <point x="312" y="347"/>
      <point x="312" y="308" type="curve" smooth="yes"/>
      <point x="312" y="299" type="line" smooth="yes"/>
      <point x="312" y="268"/>
      <point x="287" y="259"/>
      <point x="234" y="255" type="curve" smooth="yes"/>
      <point x="95" y="244" type="line"/>
      <point x="95" y="94" type="line"/>
      <point x="243" y="86" type="line" smooth="yes"/>
      <point x="292" y="83"/>
      <point x="320" y="69"/>
      <point x="320" y="34" type="curve" smooth="yes"/>
      <point x="320" y="15" type="line" smooth="yes"/>
      <point x="320" y="-16"/>
      <point x="300" y="-27"/>
      <point x="222" y="-27" type="curve" smooth="yes"/>
      <point x="34" y="-27" type="line"/>
      <point x="34" y="-183" type="line"/>
      <point x="111" y="-198"/>
      <point x="202" y="-210"/>
      <point x="298" y="-210" type="curve" smooth="yes"/>
      <point x="432" y="-210"/>
      <point x="514" y="-144"/>
      <point x="514" y="-23" type="curve" smooth="yes"/>
      <point x="514" y="6" type="line" smooth="yes"/>
      <point x="514" y="86"/>
      <point x="483" y="149"/>
      <point x="420" y="169" type="curve"/>
      <point x="481" y="191"/>
      <point x="504" y="238"/>
      <point x="504" y="306" type="curve" smooth="yes"/>
      <point x="504" y="356" type="line" smooth="yes"/>
      <point x="504" y="484"/>
      <point x="425" y="543"/>
      <point x="297" y="545" type="curve" smooth="yes"/>
      <point x="208" y="547"/>
      <point x="121" y="530"/>
      <point x="44" y="517" type="curve"/>
    </contour>
  </outline>
</glyph>
<glyph name="two.oldstyle" format="1">
  <advance width="589.0"/>
  <outline>
    <contour>
      <point x="53" y="371" type="line"/>
      <point x="257" y="371" type="line" smooth="yes"/>
      <point x="296" y="371"/>
      <point x="309" y="360"/>
      <point x="309" y="335" type="curve" smooth="yes"/>
      <point x="309" y="307"/>
      <point x="288" y="288"/>
      <point x="223" y="246" type="curve" smooth="yes"/>
      <point x="49" y="134" type="line"/>
      <point x="49" y="0" type="line"/>
      <point x="535" y="0" type="line"/>
      <point x="535" y="174" type="line"/>
      <point x="349" y="174" type="line"/>
      <point x="408" y="211" type="line" smooth="yes"/>
      <point x="478" y="255"/>
      <point x="503" y="322"/>
      <point x="503" y="378" type="curve" smooth="yes"/>
      <point x="503" y="494"/>
      <point x="438" y="545"/>
      <point x="286" y="545" type="curve" smooth="yes"/>
      <point x="197" y="545"/>
      <point x="117" y="535"/>
      <point x="53" y="525" type="curve"/>
    </contour>
  </outline>
</glyph>
<glyph name="x.salt" format="1">
  <advance width="625.0"/>
  <outline>
    <contour>
      <point x="422" y="0" type="line"/>
      <point x="625" y="0" type="line"/>
      <point x="517" y="229" type="line" smooth="yes"/>
      <point x="510" y="245"/>
      <point x="506" y="261"/>
      <point x="506" y="277" type="curve" smooth="yes"/>
      <point x="506" y="292"/>
      <point x="509" y="307"/>
      <point x="517" y="323" type="curve" smooth="yes"/>
      <point x="625" y="539" type="line"/>
      <point x="422" y="539" type="line"/>
      <point x="348" y="389" type="line" smooth="yes"/>
      <point x="333" y="359"/>
      <point x="324" y="316"/>
      <point x="324" y="274" type="curve" smooth="yes"/>
      <point x="324" y="231"/>
      <point x="333" y="187"/>
      <point x="348" y="156" type="curve" smooth="yes"/>
    </contour>
    <contour>
      <point x="0" y="0" type="line"/>
      <point x="203" y="0" type="line"/>
      <point x="277" y="156" type="line" smooth="yes"/>
      <point x="292" y="187"/>
      <point x="301" y="231"/>
      <point x="301" y="274" type="curve" smooth="yes"/>
      <point x="301" y="316"/>
      <point x="292" y="359"/>
      <point x="277" y="389" type="curve" smooth="yes"/>
      <point x="203" y="539" type="line"/>
      <point x="0" y="539" type="line"/>
      <point x="108" y="323" type="line" smooth="yes"/>
      <point x="115" y="308"/>
      <point x="119" y="292"/>
      <point x="119" y="276" type="curve" smooth="yes"/>
      <point x="119" y="261"/>
      <point x="115" y="245"/>
      <point x="108" y="229" type="curve" smooth="yes"/>
    </contour>
    <contour>
      <point x="312" y="650" type="move" name="top"/>
    </contour>
    <contour>
      <point x="312" y="-150" type="move" name="bottom"/>
    </contour>
  </outline>
</glyph>
